<svg xmlns="http://www.w3.org/2000/svg" id="a" viewBox="0 0 2816 992.6"><defs><style>.f{fill:#5a9ef8}.h{fill:#52a7f8}.i{fill:#ddd}.l{fill:#43b9f7}.m{fill:#4ab0f7}.o{fill:#3bc2f6}.q{fill:#6690f9}.v{fill:#8071fb}</style></defs><path d="M464.8 694.9c24.8-10.8 36.7-33.5 35.8-59.3-1.7-49.3-36.3-67.2-81.6-67.7l-87.8-.9c-24.3-.3-41.5-22.8-41.6-44.4s15.1-46.4 39.2-46.7l84-1a79 79 0 0 0 43-14c31.9-22.2 28.9-75 6.3-96.4-15.4-14.6-36.3-20.1-57.6-20.2H219c-24.7 0-47-18-48.8-43-1.1-16.2-.5-31.6-.2-49.7l250.8.6c31.6.1 61 11 87.4 26 38 21.6 61.4 58.2 67 101.1 7.6 53.8-11 111-63 135.8 43.7 15.4 73.9 48.2 83 92 14.3 69.7-8 137.4-75.3 168a234 234 0 0 1-94.8 21l-86.1.7c-26.8.2-48-17.7-49.5-44.3-1.5-25 18-48.5 45.5-48.6l78-.2c17.6 0 35.3-1.7 51.8-8.8m637.9 55.8-.8-294.7-140.4 242.4c-9.1 15.7-32.2 19.5-47.8 18.8a52 52 0 0 1-44-28.3L735.2 455.3l-.4 294.1c0 27.3-22.6 45.7-47.5 47.2l-44.9-.6-.2-498c0-14.4 6-28.2 16.2-36.5 25.8-21 60.7-11.2 76.5 16.4l60.3 105.4 124.1 216.8 82.8-145.6 104.5-183.2a50 50 0 0 1 53.8-19.7c17 4.4 35.1 20.5 35.2 42.5l.2 502c-17 .4-32.4 1-49-.1-22.6-1.6-44-20.4-44-45.3Zm399.3 45.5-225-.5c-25.1 0-40.4-29.4-37.9-50.3a46.6 46.6 0 0 1 48-41.7h209.8c36.8 0 76.4-17.3 78-60 1.6-44-32.5-59.2-70.7-67l-84.8-17.4c-29.4-6-57.4-13.4-84.4-25.1-54.7-23.9-84.8-75.2-83.5-134.1 1.1-52.6 25.6-100 73.8-124.3 27.6-14 57.6-23.7 89.9-23.7H1607c24.8 0 41.6 24.7 41.2 46.5-.5 23.1-18.1 45.2-43.2 45.3l-173.5.6c-32.7.1-73.8 10-80.6 46.5-7.6 41.2 22.5 58.8 58.8 68 33.6 8.7 66.3 15 100.4 21.5a398 398 0 0 1 77.3 22.5c54.3 22.4 84.5 71.1 86.8 128.7 2.6 62.3-27.5 118.4-85.8 144.3a210 210 0 0 1-86.4 20.2" class="i"/><path d="m847.9 702.6-84.6.4v-39.2l64.2-.4z" class="m"/><path d="M821.9 653.5h-57.3l-.1-35.5 36.8-.4z" class="h"/><path d="m959 752.6-83-.2.2-18.7s23.8 4.1 42.4 4.3 40.5-4.6 40.5-4.6z" style="fill:#44b8f7"/><path d="M793.1 607.7h-29.8v-33.5l10.4-.3z" class="f"/><path d="M1887.5 791.9h-29c-2.6 0-7.5-3-7.5-6.5V561.3l-69.9-.4c-5.5 0-10-5.7-10-10.7l-.1-17.1c0-3.6 3.5-9.4 8.6-9.4h398.7a47 47 0 0 1 39.7-26 46 46 0 0 1 40.8 26h429.5c9.9 0 14.8 12 14.7 18.8-.2 7.9-6 18.5-16.5 18.5h-428.7a44 44 0 0 1-38 24.3 45 45 0 0 1-40.4-24.2l-285-.1-.1 224.3c0 3.1-4.6 6.7-6.8 6.6m356-250.6a24.7 24.7 0 1 0-49.4 0 24.7 24.7 0 0 0 49.4 0" class="i"/><circle cx="2218.8" cy="541.3" r="24.7" style="fill:#86c654"/><path d="M2534.9 750.5c3.4 11 5 19.9 6 31-53 24.4-147.4 22.7-162.8-46.7-9.3-42-1.5-90.5 43-108.7 21.4-8.8 44.5-9.3 67.6-6.3 50 6.4 69.1 54.5 58.5 100l-129.3.4c4.9 55 77 42.4 117 30.3m-26.5-58.6a42 42 0 0 0-14.8-35 83 83 0 0 0-40.4-4.9c-21.5 1.5-37.2 19.4-33.6 40.2zM2244 656c-16.3 5-26 18.6-26 34.4l-.5 101-36.9.5c-2.8 0-4.8-7.1-4.8-10.3V623.1a71 71 0 0 1 31.7-1l5.7 19.7c23-26.6 69.3-28.9 97-17.3a59 59 0 0 1 35.1 55.4l.2 111.5-34.8.7c-2 0-6.3-4-6.4-7l-.4-96.2c0-12.7-7.3-26-18.5-31.3a57 57 0 0 0-41.4-1.6m-146.4-33.8c15.8-1.5 26.7-1.7 41.7 0l-.4 109.2a59.4 59.4 0 0 1-42.7 57.6 136 136 0 0 1-83 .6c-26.1-8.2-45.3-29.8-45.4-58.5l-.7-108.6c14.5-2 27-2 42-.4l.4 101.4c0 11.7 5.5 24.8 15.6 30.3 16.7 9 37.4 9 54.5.7a34 34 0 0 0 17.1-29zm524.9 160.6c0 4.9-3.4 9.2-7 9.2l-29-.1c-3 0-6.8-4.7-6.8-8.5l.1-160.5c11.7-2.5 21.6-2.2 32.9-1.1l4.8 18.3c5.8-4.3 11.3-10.9 17.3-13.8 21.6-10.5 45.7-10 68.4-3.2l-2.8 29.9c-.8 8.2-24.8-2.7-48 1.8a35.4 35.4 0 0 0-29.7 34.9zm-804.9-384.4-1 73-34 1.2c-4.1 0-9.3-4.5-9.3-9.3V259.7c0-3.6 4-8.2 7.7-8.2l127 1c32.9.1 56.2 24.3 60.9 55.4 3.6 24.2.9 49-15.8 68a71 71 0 0 1-51.9 22.1zm74.2-35.3c24.3 0 35.5-20.3 33.9-41.4-1.5-19.6-12.7-35-33.7-35l-74.7-.1-.2 76.7zm92.2 57.6c-.8-64.8 82.6-56 125.7-49.5 1.4-10.7-.5-24-10.6-31.8-16.8-13-67.8-5.8-89.4-.8-4.8 1-10-2.2-10.5-7l-2.4-22.3c36.4-11.8 113.5-21.1 141 11.8a67 67 0 0 1 13.8 42.6l-.1 107.9-30.7.7-7.1-17.2c-22.3 21.2-63.8 23.6-91.6 16a50 50 0 0 1-38.1-50.4m125.4 1.6c1.5-8.8 1-16.4 0-24.8-26-.4-79.7-14-83.7 17.6a23 23 0 0 0 16.4 25.8c26.4 8 64.6-1.9 67.3-18.6m334.1 15.6c2.2 11.8 3.6 21.1 2.4 32.1a132 132 0 0 1-41.1 3.8 52 52 0 0 1-51.7-52.4l-.1-85.7-28.7-1.2c-1.1-11.7-.9-21.3.7-32.3l27.9-1.4.6-39.5c0-4.1 2.6-10.1 7-10l34.2.7.6 49.1 45.6.7a93 93 0 0 1-.2 33l-45.5.6.1 80c0 15.2 11 24.8 25.6 23.9zM2230 471.5l-35.6 1c-2.8 0-7.3-5.4-7.3-8.8V304a70 70 0 0 1 32.9-1.3l5.2 19.2c24.3-26 51-26.2 85-19v24.8c0 17.8-24.6 1-55 8.6-13.8 3.5-24.3 18.7-24.4 33.4z" class="i"/><path d="m961.1 135.8-85.8.4.8-42 84.8-.5z" style="fill:#915dfc"/><path d="m961.1 240.8-85.8.4.8-42 84.8-.5z" class="v"/><path d="m960.6 188.3-85.8.4.7-42 84.8-.5z" style="fill:#8867fb"/><path d="m851.8 240.8-85.9.4.8-42 84.8-.5z" class="v"/><path d="m851.8 293.3-83.7.4-2-3.8.6-38.2 84.8-.5zm134.5-2.5 81.8.3 3.5-6.4v-35.5l-85-.5z" style="fill:#787afa"/><path d="m852.2 345.9-55.4.6-23-42.3 78.1-.4zm133.7-2.3 53.2.6 22.9-41.9-75.8-.8z" style="fill:#7183fa"/><path d="m853.2 399-27.6.3-22.8-41.9 50.1-.5zm133.1-.6 23.1-.1 22.7-41.6-45.5-.4z" style="fill:#698cf9"/><path d="m961.1 293.3-85.8.4.8-42 84.8-.5z" style="fill:#777bfa"/><path d="m960.5 806.9-85.9.4.3-42.5 85.3.1zm-111.4 0-85.8.4v-42.4h85.5z" class="o"/><path d="M849.8 755h-86.5v-41.6l86.2-.5z" class="l"/><path d="m986.9 702.6 84.6.4v-42.6l-63 .5z" class="m"/><path d="M1009.4 652h62l.7-39.4-35.8-.2z" class="h"/><path d="M1043.3 604h31.7l.1-39.4-10.8.3z" class="f"/><path d="m986.3 806.9 85.8.4v-42.4h-85.5z" class="o"/><path d="M985.9 753.4h86.6v-41.6l-86.3-.4z" class="l"/><path d="m962 345.8-85.8.4.8-42 84.7-.4z" style="fill:#6f85fa"/><path d="m961.1 398.3-85.8.4.8-42 84.8-.4z" class="q"/><path d="m1312 603.7-86.6.3.6-39.2 85.7-.4z" class="f"/><path d="m1311.3 651.2-86.6.3.6-39.2 85.7-.4z" class="h"/><path d="M1430.8 604h-86.5l.5-39.7 85.8 17.4z" class="f"/><path d="m1430.1 650.6-86.5.4.5-39.2 85.7-.5z" class="h"/><path d="m1311.3 682.3-86.6.2.6-22.9 85.7-.2zm119.7 0-86.5.2.5-23 85.7-.2z" class="m"/><path d="m961.1 450.8-85.8.4.8-42 84.8-.4z" style="fill:#5d9af8"/><path d="m254.2 433.4-85.8.4.8-42 84.7-.4z" class="q"/><path d="m254.2 486.7-85.8.4.8-42 84.7-.4z" style="fill:#6097f9"/><path d="m253.5 540-85.8.5.8-42.1 84.7-.4z" class="f"/><path d="m253.8 593.4-85.8.4.8-42 84.8-.5z" style="fill:#54a5f8"/><path d="m254.2 646.7-85.8.4.8-42 84.7-.5z" style="fill:#4dadf7"/><path d="m252.9 700-85.9.4.8-42 84.8-.5z" style="fill:#47b4f7"/><path d="m252.2 753.3-85.9.4.8-42 84.8-.5z" style="fill:#41bbf6"/><path d="m251.1 806.6-85.8.4.8-42 84.7-.4z" class="o"/><path d="m951.9 503.6-68.7.1-7.6-13.7.5-28.3 84.8-.4.2 25.5z" style="fill:#55a4f8"/><path d="m1072.1 237.9-85.8.4-.2-42 85.7-.4z" class="v"/><path d="m855.4 451.2-1.1-42.4-23.4.2 23 42.2zm130.5-10v-32.4l17.7.2z" style="fill:#6195f9"/><path d="m946.3 513.8-57.4.3 23.1 42h11.1z" style="fill:#4caef7"/></svg>
